<svg width="20" height="16" viewBox="0 0 20 16" fill="none" xmlns="http://www.w3.org/2000/svg">
<path fill-rule="evenodd" clip-rule="evenodd" d="M15.7952 0.100708C16.9471 0.100708 17.5344 0.214111 18.1456 0.540992C18.7098 0.842756 19.1581 1.29096 19.4598 1.85521C19.7616 2.41941 19.8814 2.96319 19.898 3.9495L19.9001 4.20556V11.7959L19.898 12.0519C19.8814 13.0382 19.7616 13.582 19.4598 14.1462C19.1581 14.7105 18.7098 15.1587 18.1456 15.4604L18.0047 15.5321C17.4407 15.8041 16.8585 15.9007 15.7952 15.9007H4.20495C3.14167 15.9007 2.5595 15.8041 1.99549 15.5321L1.8546 15.4604C1.29035 15.1587 0.842145 14.7105 0.540382 14.1462C0.238645 13.582 0.118808 13.0382 0.102156 12.0519L0.100098 11.7959V4.20556C0.100098 3.05368 0.213501 2.46643 0.540382 1.85521C0.842145 1.29096 1.29035 0.842756 1.8546 0.540992C2.4188 0.239256 2.96258 0.119418 3.94889 0.102767L4.20495 0.100708H15.7952ZM18.0991 5.90071L18.1001 11.7959C18.1001 12.676 18.0409 12.9825 17.8725 13.2973C17.7385 13.5479 17.5473 13.7392 17.2967 13.8732C17.0061 14.0286 16.7226 14.091 15.9884 14.0996L15.7952 14.1007H4.20495L4.01176 14.0996C3.27759 14.091 2.99406 14.0286 2.70348 13.8732C2.45291 13.7392 2.26165 13.5479 2.12765 13.2973C1.95929 12.9825 1.9001 12.676 1.9001 11.7959L1.8991 5.90071H18.0991ZM4.20495 1.90071H15.7952L15.9884 1.90178C16.7226 1.91046 17.0061 1.97285 17.2967 2.12826C17.5473 2.26226 17.7385 2.45352 17.8725 2.70409C18.028 2.99467 18.0903 3.27821 18.099 4.01237L18.0981 4.10071H1.9001L1.90117 4.01237C1.90985 3.27821 1.97224 2.99467 2.12765 2.70409C2.26165 2.45352 2.45291 2.26226 2.70348 2.12826C3.01828 1.9599 3.3248 1.90071 4.20495 1.90071Z" fill="#424950"/>
<path d="M4.00009 10.8007C4.00009 10.5207 4.00009 10.3807 4.05459 10.2737C4.10253 10.1797 4.17902 10.1032 4.2731 10.0552C4.38005 10.0007 4.52007 10.0007 4.80009 10.0007H5.20009C5.48012 10.0007 5.62013 10.0007 5.72709 10.0552C5.82117 10.1032 5.89766 10.1797 5.94559 10.2737C6.00009 10.3807 6.00009 10.5207 6.00009 10.8007V11.2007C6.00009 11.4808 6.00009 11.6208 5.94559 11.7277C5.89766 11.8218 5.82117 11.8983 5.72709 11.9462C5.62013 12.0007 5.48012 12.0007 5.20009 12.0007H4.80009C4.52007 12.0007 4.38005 12.0007 4.2731 11.9462C4.17902 11.8983 4.10253 11.8218 4.05459 11.7277C4.00009 11.6208 4.00009 11.4808 4.00009 11.2007V10.8007Z" fill="#424950"/>
</svg>
