<svg width="22" height="21" viewBox="0 0 22 21" fill="none" xmlns="http://www.w3.org/2000/svg">
<path d="M11 17.2375C14.721 17.2375 17.7375 14.221 17.7375 10.5C17.7375 6.77898 14.721 3.7625 11 3.7625C7.27898 3.7625 4.2625 6.77898 4.2625 10.5C4.2625 14.221 7.27898 17.2375 11 17.2375ZM11 18.8125C6.40913 18.8125 2.6875 15.0909 2.6875 10.5C2.6875 5.90913 6.40913 2.1875 11 2.1875C15.5909 2.1875 19.3125 5.90913 19.3125 10.5C19.3125 15.0909 15.5909 18.8125 11 18.8125ZM11 8.52805C10.3959 8.52805 9.90625 8.03836 9.90625 7.4343C9.90625 6.83023 10.3959 6.34055 11 6.34055C11.6041 6.34055 12.0938 6.83023 12.0938 7.4343C12.0938 8.03836 11.6041 8.52805 11 8.52805ZM10.2125 10.874C10.2125 10.424 10.5651 10.0593 11 10.0593C11.4349 10.0593 11.7875 10.424 11.7875 10.874V14.0571C11.7875 14.5071 11.4349 14.8718 11 14.8718C10.5651 14.8718 10.2125 14.5071 10.2125 14.0571V10.874Z" fill="white"/>
</svg>
