<svg width="21" height="21" viewBox="0 0 21 21" fill="none" xmlns="http://www.w3.org/2000/svg">
<path d="M10.5 7.95878C10.5 8.04585 10.4676 8.12979 10.409 8.19421C10.279 8.33724 10.0576 8.34778 9.91457 8.21776L6.1623 4.8066C6.1486 4.79415 6.13551 4.78106 6.12306 4.76736C5.90634 4.52898 5.92391 4.16005 6.1623 3.94334L9.91457 0.532183C9.979 0.473615 10.0629 0.441162 10.15 0.441162C10.3433 0.441162 10.5 0.597862 10.5 0.791162L10.5 3.49997C14.366 3.49997 17.5 6.63398 17.5 10.5C17.5 14.366 14.366 17.5 10.5 17.5C6.63401 17.5 3.5 14.366 3.5 10.5C3.5 10.0167 3.89175 9.62497 4.375 9.62497C4.85825 9.62497 5.25 10.0167 5.25 10.5C5.25 13.3995 7.6005 15.75 10.5 15.75C13.3995 15.75 15.75 13.3995 15.75 10.5C15.75 7.60047 13.3995 5.24997 10.5 5.24997L10.5 7.95878Z" fill="white"/>
</svg>
