<svg width="38" height="38" viewBox="0 0 38 38" fill="none" xmlns="http://www.w3.org/2000/svg">
<path d="M23.9134 27.8538C22.5341 27.4311 20.4496 26.7932 20.0086 25.213C19.8439 24.6251 19.8459 20.4525 19.8882 17.6363C22.5188 17.6083 24.9628 17.4762 26.8561 17.256C30.3877 16.845 30.3877 16.3244 30.3877 16.074L30.382 16.0138L30.3877 14.5795C30.3877 14.5723 30.3877 14.5657 30.3877 14.5591V14.5581C30.3877 14.3077 30.3877 13.7871 26.8561 13.3761C24.7145 13.1273 21.8692 12.9901 18.8445 12.9901C15.8192 12.9901 12.9745 13.1273 10.8329 13.3761C7.30078 13.7871 7.30078 14.3077 7.30078 14.5581V16.074C7.30078 16.3244 7.30078 16.845 10.8329 17.256C12.7261 17.4762 15.1696 17.6083 17.8002 17.6363C17.8425 20.4525 17.8446 24.6251 17.6799 25.213C17.2388 26.7927 15.1548 27.4311 13.7755 27.8533C12.8072 28.15 12.2739 28.3132 12.2739 28.7344C12.2723 28.7731 12.2683 28.8777 12.33 28.9715C12.383 29.0842 12.4569 29.1209 12.4539 29.1178C13.052 29.5614 16.1853 29.7639 18.844 29.7639C21.5021 29.7639 24.6354 29.562 25.2121 29.1326C25.3095 29.0745 25.4141 28.9394 25.4141 28.7359C25.4151 28.3142 24.8817 28.1505 23.9134 27.8538ZM18.8445 13.5005C25.2963 13.5005 29.3413 14.1093 29.8466 14.555C29.8364 14.5647 29.8268 14.5744 29.8135 14.5841C29.7951 14.5973 29.7747 14.6111 29.7503 14.6249C29.7222 14.6407 29.6886 14.656 29.6529 14.6718C29.6218 14.6855 29.5891 14.6993 29.5519 14.7131C29.5086 14.7294 29.4591 14.7457 29.4076 14.762C29.3638 14.7758 29.3199 14.7901 29.2705 14.8038C29.2118 14.8202 29.1465 14.837 29.0803 14.8533C29.0247 14.8671 28.9686 14.8813 28.9074 14.8951C28.834 14.9119 28.7529 14.9283 28.6713 14.9451C28.604 14.9588 28.5377 14.9726 28.4653 14.9859C28.3766 15.0027 28.2802 15.019 28.1839 15.0353C28.1053 15.0486 28.0283 15.0618 27.9447 15.0751C27.8427 15.0914 27.7326 15.1067 27.6235 15.1225C27.5327 15.1358 27.4435 15.149 27.3471 15.1618C27.2314 15.1771 27.1069 15.1924 26.984 15.2072C26.8826 15.2194 26.7837 15.2322 26.6771 15.2439C26.5466 15.2587 26.4074 15.2729 26.2697 15.2867C26.158 15.2984 26.0494 15.3102 25.9331 15.3209C25.7893 15.3346 25.6369 15.3474 25.486 15.3607C25.3636 15.3714 25.2448 15.3821 25.1183 15.3923C24.9608 15.4045 24.7945 15.4162 24.6298 15.428C24.4983 15.4371 24.3708 15.4468 24.2352 15.4555C24.0643 15.4667 23.8838 15.4764 23.7064 15.4861C23.5657 15.4942 23.4285 15.5024 23.2832 15.5101C23.0971 15.5192 22.9018 15.5274 22.7085 15.5355C22.5612 15.5417 22.4189 15.5488 22.2674 15.5544C22.0538 15.5626 21.83 15.5687 21.6081 15.5748C21.4679 15.5789 21.3328 15.584 21.19 15.5876C20.9279 15.5942 20.6551 15.5983 20.3828 15.6023C20.2707 15.6039 20.1631 15.6069 20.0489 15.6085C19.6573 15.6131 19.2565 15.6156 18.845 15.6156C18.4345 15.6156 18.0342 15.6131 17.6437 15.6085C17.4942 15.6064 17.353 15.6029 17.2067 15.6008C16.9721 15.5967 16.7345 15.5937 16.5076 15.5881C16.2944 15.583 16.091 15.5758 15.885 15.5692C15.7376 15.5646 15.5862 15.5605 15.4424 15.5554C15.1538 15.5447 14.8754 15.5325 14.6011 15.5192C14.5526 15.5167 14.5011 15.5152 14.4532 15.5126C10.5682 15.3193 8.20178 14.892 7.83669 14.5576C8.32314 14.1129 12.3743 13.5005 18.8445 13.5005ZM7.81119 15.12C7.83006 15.1292 7.85505 15.1378 7.87544 15.1465C7.90451 15.1587 7.93408 15.1705 7.96671 15.1827C8.00496 15.197 8.04677 15.2112 8.0896 15.2255C8.12631 15.2378 8.16303 15.2505 8.20331 15.2627C8.24971 15.277 8.30172 15.2918 8.35322 15.3061C8.37413 15.3117 8.39197 15.3178 8.41339 15.3234L7.81119 16.0449V15.12ZM8.05595 16.2045L8.72545 15.4014C8.75961 15.4091 8.79225 15.4172 8.82845 15.4249C8.89984 15.4407 8.97938 15.456 9.0574 15.4718C9.10992 15.4825 9.15836 15.4927 9.21394 15.5034L8.50823 16.3494C8.32212 16.3004 8.16864 16.252 8.05595 16.2045ZM8.82131 16.4248L9.54282 15.5605C9.59279 15.5687 9.6392 15.5774 9.69121 15.5855C9.80389 15.6034 9.9278 15.6212 10.0512 15.6385L9.31388 16.5222C9.1349 16.4901 8.96969 16.4575 8.82131 16.4248ZM9.64276 16.5798L10.3893 15.6849C10.5325 15.7038 10.6758 15.7222 10.8334 15.7405C10.8579 15.7436 10.8849 15.7456 10.9094 15.7487L10.1527 16.6553C9.9742 16.6303 9.80134 16.6053 9.64276 16.5798ZM10.4923 16.6991L11.2556 15.7849C13.3431 16.0052 16.0115 16.1265 18.845 16.1265C21.8697 16.1265 24.715 15.9894 26.8566 15.74C27.0718 15.715 27.2732 15.6895 27.4628 15.6635C27.5286 15.6544 27.5857 15.6452 27.649 15.6365C27.7678 15.6197 27.8876 15.6023 27.9962 15.5855C28.063 15.5748 28.1216 15.5641 28.1844 15.5534C28.2787 15.5376 28.3746 15.5218 28.4607 15.5055C28.5224 15.4937 28.5775 15.4825 28.6356 15.4708C28.7121 15.4555 28.7896 15.4402 28.8595 15.4249C28.9156 15.4127 28.9655 15.4004 29.0175 15.3882C29.0798 15.3734 29.1425 15.3591 29.1991 15.3443C29.2485 15.3316 29.2924 15.3188 29.3378 15.3061C29.3877 15.2918 29.4382 15.278 29.4836 15.2638C29.5259 15.2505 29.5642 15.2378 29.6024 15.2245C29.6427 15.2107 29.683 15.197 29.7192 15.1832C29.7538 15.1699 29.7855 15.1572 29.8166 15.1445C29.8354 15.1368 29.8584 15.1286 29.8762 15.121L29.8726 16.049L29.8732 16.0536C29.4907 16.5008 25.4151 17.1321 18.845 17.1321C15.241 17.1331 12.3957 16.9424 10.4923 16.6991ZM18.8445 29.254C15.7565 29.254 13.4354 29.0072 12.8225 28.741C12.9974 28.6258 13.5063 28.4697 13.9249 28.3412C15.4103 27.8864 17.6544 27.1991 18.1709 25.3507C18.3958 24.546 18.3305 19.0467 18.3101 17.6425H19.3773C19.3569 19.0467 19.2917 24.546 19.5165 25.3502C20.0331 27.1986 22.2776 27.8864 23.763 28.3412C24.1852 28.4708 24.6992 28.6278 24.87 28.7436C24.358 28.996 22.0018 29.254 18.8445 29.254Z" fill="black"/>
<path d="M10.5417 19.5522H2.84016C2.75144 19.5522 2.66679 19.57 2.5898 19.6026C2.52606 18.5624 2.46283 17.5217 2.3996 16.4815C2.43683 16.4882 2.4715 16.5035 2.51076 16.5035C2.52045 16.5035 2.53014 16.5035 2.53983 16.5029C2.89523 16.4866 3.17109 16.1848 3.15528 15.8294L2.81313 8.13544C2.79784 7.78004 2.48935 7.49908 2.13955 7.51948C1.78415 7.53579 1.50829 7.83766 1.5241 8.19306L1.52461 8.20989C1.46597 8.19867 0.83828 8.21447 0.588428 8.20989L0 8.20275V30.459C0 30.459 0.962697 30.4835 1.30688 30.4819C1.8999 30.4789 1.93661 30.0235 1.94885 29.8695C2.0493 28.6361 2.0804 25.902 2.1008 24.0923C2.10743 23.509 2.11304 22.9828 2.11967 22.6886H8.4343C8.46643 22.9741 8.52609 23.5121 8.59135 24.1076C8.78614 25.8811 9.08035 28.5611 9.25729 29.9623C9.27564 30.1082 9.40516 30.3953 9.63461 30.4299C9.81053 30.4564 9.98135 30.4518 10.145 30.4478L10.5713 30.4447V20.8371C10.9129 20.8218 11.1883 20.5434 11.1883 20.1972C11.1868 19.8418 10.8971 19.5522 10.5417 19.5522ZM2.15179 7.80808C2.1574 7.80808 2.1625 7.80808 2.1676 7.80808C2.35677 7.80808 2.51535 7.95748 2.52351 8.14819L2.86565 15.8421C2.87483 16.0384 2.72237 16.2047 2.52606 16.2138C2.47456 16.2159 2.42561 16.2072 2.38125 16.1909C2.32159 15.2068 1.81168 8.18031 1.81168 8.18031C1.80302 7.984 1.95548 7.81726 2.15179 7.80808ZM10.0599 29.9394C9.96044 29.9414 9.8656 29.9419 9.77637 29.9338C9.76872 29.9205 9.76311 29.9063 9.76158 29.8986C9.58515 28.501 9.29145 25.8235 9.09667 24.0521C8.93095 22.5433 8.91616 22.4158 8.90749 22.3775L8.86262 22.1787H1.64138C1.64138 22.1787 1.53889 28.6126 1.43946 29.8282C1.43334 29.9032 1.42365 29.9363 1.42671 29.9419C1.41549 29.945 0.529279 29.9419 0.508883 29.9425V8.71826L0.57772 8.71928C0.8393 8.72438 1.09935 8.72897 1.35889 8.71775C1.38898 8.71673 1.40886 8.71724 1.41855 8.71571C1.42161 8.7305 1.42569 8.75548 1.42773 8.79423C1.48994 9.94509 1.5603 11.0959 1.63016 12.2463L1.69237 13.2686C1.83718 15.6631 2.16556 21.1303 2.16556 21.1303H10.0599V29.9394ZM10.5417 20.5536H2.84016C2.76826 20.5536 2.70503 20.5271 2.64895 20.4899C2.64589 20.4669 2.64079 20.4435 2.63926 20.4205C2.62906 20.2574 2.61937 20.0942 2.60968 19.9315C2.6724 19.8775 2.75144 19.8413 2.84016 19.8413H10.5417C10.738 19.8413 10.8976 20.0009 10.8976 20.1972C10.8976 20.3935 10.738 20.5536 10.5417 20.5536Z" fill="black"/>
<path d="M37.4109 8.20974C37.161 8.21484 36.9111 8.21943 36.6623 8.20821C36.5914 8.20566 36.5323 8.21688 36.4736 8.22861L36.4752 8.19291C36.491 7.83751 36.2151 7.53565 35.8597 7.51933C35.488 7.49792 35.202 7.77989 35.1861 8.1353L34.844 15.8292C34.8282 16.1846 35.1041 16.4865 35.4595 16.5028C35.4697 16.5033 35.4788 16.5033 35.4885 16.5033C35.5278 16.5033 35.5625 16.4885 35.5997 16.4814C35.5364 17.5216 35.4737 18.5623 35.4095 19.6025C35.3325 19.5699 35.2478 19.552 35.1591 19.552H27.457C27.1016 19.552 26.812 19.8416 26.812 20.1976C26.812 20.5433 27.0868 20.8217 27.429 20.8375V30.4446L27.8553 30.4476C28.019 30.4522 28.1893 30.4568 28.3657 30.4298C28.5951 30.3951 28.7247 30.108 28.743 29.9622C28.9199 28.5605 29.2142 25.8809 29.4089 24.1075C29.4747 23.5089 29.5339 22.9689 29.5655 22.6884H35.8806C35.8873 22.9826 35.8929 23.5094 35.8995 24.0922C35.9199 25.9013 35.951 28.6359 36.0515 29.8689C36.0632 30.0229 36.0933 30.4655 36.7031 30.4537C37.007 30.4481 37.9998 30.4588 37.9998 30.4588V8.20209L37.4109 8.20974ZM35.4885 16.2142C35.4834 16.2142 35.4778 16.2142 35.4727 16.2142C35.2764 16.205 35.1239 16.0388 35.1331 15.8425L35.4753 8.14855C35.4839 7.95275 35.6344 7.80131 35.847 7.80845C36.0433 7.81763 36.1958 7.98385 36.1866 8.18017L36.1759 8.41829C36.1137 8.50752 35.6772 15.2056 35.617 16.1892C35.5772 16.2045 35.5339 16.2142 35.4885 16.2142ZM27.457 20.5535C27.2607 20.5535 27.1011 20.3939 27.1011 20.1976C27.1011 20.0012 27.2607 19.8416 27.457 19.8416H35.1586C35.2473 19.8416 35.3264 19.8773 35.3891 19.9319C35.3789 20.0946 35.3692 20.2577 35.3595 20.4204C35.358 20.4433 35.3529 20.4673 35.3498 20.4902C35.2937 20.527 35.2305 20.5535 35.1591 20.5535H27.457ZM37.4899 29.9423C37.4695 29.9418 36.6312 29.9464 36.6174 29.9464C36.5965 29.9464 36.5838 29.9459 36.5797 29.9469C36.5746 29.9336 36.5654 29.9005 36.5593 29.8276C36.4604 28.612 36.4298 25.8881 36.4094 24.0861C36.3982 23.0719 36.391 22.178 36.391 22.178H29.1361L29.0913 22.3769C29.0821 22.4151 29.0678 22.5426 28.9021 24.0514C28.7073 25.8233 28.4136 28.5008 28.2377 29.8959C28.2357 29.9051 28.2295 29.9194 28.2224 29.9331C28.1332 29.9418 28.0388 29.9408 27.9389 29.9387V21.1302H35.8791C35.8791 21.1302 36.1611 15.663 36.3064 13.2685L36.3686 12.2461C36.439 11.0958 36.5088 9.94494 36.571 8.79409C36.5736 8.75432 36.5772 8.72984 36.5761 8.71862C36.5889 8.7176 37.4899 8.71862 37.4899 8.71862V29.9423Z" fill="black"/>
</svg>
