<?xml version="1.0" encoding="UTF-8"?>
<svg xmlns="http://www.w3.org/2000/svg" xmlns:xlink="http://www.w3.org/1999/xlink" viewBox="0 0 13 13" width="13px" height="13px">
<g id="surface126892048">
<path style="fill-rule:nonzero;fill:rgb(100%,100%,100%);fill-opacity:1;stroke-width:10;stroke-linecap:butt;stroke-linejoin:round;stroke:rgb(100%,100%,100%);stroke-opacity:1;stroke-miterlimit:10;" d="M 160.160563 37.817511 C 161.035614 40.005139 160.543398 42.52091 158.847987 44.16163 L 67.131716 135.932592 C 64.889398 138.174909 61.225123 138.174909 59.037495 135.932592 L 18.894536 95.789632 C 17.363197 94.367675 16.7616 92.234738 17.308506 90.211183 C 17.800723 88.187628 19.386752 86.601598 21.410307 86.109382 C 23.433863 85.562475 25.566799 86.164073 26.988757 87.695412 L 63.084606 123.73657 L 150.753766 36.06741 C 151.792889 35.028287 153.214846 34.371999 154.691495 34.317308 C 157.043194 34.262617 159.230821 35.684575 160.160563 37.817511 Z M 160.160563 37.817511 " transform="matrix(0.0714244,0,0,0.0714244,0.3575,0.3575)"/>
<path style=" stroke:none;fill-rule:nonzero;fill:rgb(100%,100%,100%);fill-opacity:1;" d="M 11.40625 2.808594 C 11.300781 2.8125 11.199219 2.859375 11.125 2.933594 L 4.863281 9.195312 L 2.285156 6.621094 C 2.183594 6.511719 2.03125 6.46875 1.886719 6.507812 C 1.742188 6.542969 1.628906 6.65625 1.59375 6.800781 C 1.554688 6.945312 1.597656 7.097656 1.707031 7.199219 L 4.574219 10.066406 C 4.730469 10.226562 4.992188 10.226562 5.152344 10.066406 L 11.703125 3.511719 C 11.824219 3.394531 11.859375 3.214844 11.796875 3.058594 C 11.730469 2.90625 11.574219 2.804688 11.40625 2.808594 Z M 11.40625 2.808594 "/>
</g>
</svg>
